<?xml version="1.0" encoding="UTF-8" standalone="no"?>
<!DOCTYPE svg PUBLIC "-//W3C//DTD SVG 1.1//EN"
 "http://www.w3.org/Graphics/SVG/1.1/DTD/svg11.dtd">
<!-- Generated by graphviz version 2.28.0 (20120127.1228)
 -->
<!-- Title: controllers_diagram Pages: 1 -->
<svg width="894pt" height="865pt"
 viewBox="0.00 0.00 893.64 865.20" xmlns="http://www.w3.org/2000/svg" xmlns:xlink="http://www.w3.org/1999/xlink">
<g id="graph1" class="graph" transform="scale(1 1) rotate(0) translate(4 861.2)">
<title>controllers_diagram</title>
<polygon fill="white" stroke="white" points="-4,5 -4,-861.2 890.642,-861.2 890.642,5 -4,5"/>
<!-- _diagram_info -->
<g id="node1" class="node"><title>_diagram_info</title>
<text text-anchor="start" x="46" y="-107" font-family="Times,serif" font-size="13.00">Controllers diagram</text>
<text text-anchor="start" x="46" y="-91.4" font-family="Times,serif" font-size="13.00">Date: Jan 27 2012 &#45; 13:34</text>
<text text-anchor="start" x="46" y="-75.8" font-family="Times,serif" font-size="13.00">Migration version: 20120124220357</text>
<text text-anchor="start" x="46" y="-60.2" font-family="Times,serif" font-size="13.00">Generated by RailRoady 1.0.5</text>
<text text-anchor="start" x="46" y="-44.6" font-family="Times,serif" font-size="13.00">http://railroady.prestonlee.com</text>
</g>
<!-- ApplicationController -->
<g id="node2" class="node"><title>ApplicationController</title>
<polyline fill="none" stroke="black" points="392,-57.5 570.635,-57.5 "/>
<path fill="none" stroke="black" d="M570.635,-57.5C576.635,-57.5 582.635,-63.5 582.635,-69.5"/>
<polyline fill="none" stroke="black" points="582.635,-69.5 582.635,-194.3 "/>
<path fill="none" stroke="black" d="M582.635,-194.3C582.635,-200.3 576.635,-206.3 570.635,-206.3"/>
<polyline fill="none" stroke="black" points="570.635,-206.3 392,-206.3 "/>
<path fill="none" stroke="black" d="M392,-206.3C386,-206.3 380,-200.3 380,-194.3"/>
<polyline fill="none" stroke="black" points="380,-194.3 380,-69.5 "/>
<path fill="none" stroke="black" d="M380,-69.5C380,-63.5 386,-57.5 392,-57.5"/>
<text text-anchor="middle" x="481.317" y="-188.3" font-family="Times,serif" font-size="14.00">ApplicationController</text>
<polyline fill="none" stroke="black" points="380,-181.5 582.635,-181.5 "/>
<text text-anchor="start" x="388" y="-163.5" font-family="Times,serif" font-size="14.00">_one_time_conditions_valid_16?</text>
<text text-anchor="start" x="388" y="-146.7" font-family="Times,serif" font-size="14.00">authenticate</text>
<polyline fill="none" stroke="black" points="380,-139.9 582.635,-139.9 "/>
<polyline fill="none" stroke="black" points="380,-115.9 582.635,-115.9 "/>
<text text-anchor="start" x="388" y="-97.9" font-family="Times,serif" font-size="14.00">_layout</text>
<text text-anchor="start" x="388" y="-81.1" font-family="Times,serif" font-size="14.00">_run_process_action_callbacks</text>
<text text-anchor="start" x="388" y="-64.3" font-family="Times,serif" font-size="14.00">current_user</text>
</g>
<!-- CommentsController -->
<g id="node3" class="node"><title>CommentsController</title>
<polyline fill="none" stroke="black" points="525,-247.5 703.635,-247.5 "/>
<path fill="none" stroke="black" d="M703.635,-247.5C709.635,-247.5 715.635,-253.5 715.635,-259.5"/>
<polyline fill="none" stroke="black" points="715.635,-259.5 715.635,-501.9 "/>
<path fill="none" stroke="black" d="M715.635,-501.9C715.635,-507.9 709.635,-513.9 703.635,-513.9"/>
<polyline fill="none" stroke="black" points="703.635,-513.9 525,-513.9 "/>
<path fill="none" stroke="black" d="M525,-513.9C519,-513.9 513,-507.9 513,-501.9"/>
<polyline fill="none" stroke="black" points="513,-501.9 513,-259.5 "/>
<path fill="none" stroke="black" d="M513,-259.5C513,-253.5 519,-247.5 525,-247.5"/>
<text text-anchor="middle" x="614.317" y="-495.9" font-family="Times,serif" font-size="14.00">CommentsController</text>
<polyline fill="none" stroke="black" points="513,-489.1 715.635,-489.1 "/>
<text text-anchor="start" x="521" y="-471.1" font-family="Times,serif" font-size="14.00">_one_time_conditions_valid_22?</text>
<text text-anchor="start" x="521" y="-454.3" font-family="Times,serif" font-size="14.00">_one_time_conditions_valid_26?</text>
<text text-anchor="start" x="521" y="-437.5" font-family="Times,serif" font-size="14.00">authorize</text>
<text text-anchor="start" x="521" y="-420.7" font-family="Times,serif" font-size="14.00">create</text>
<text text-anchor="start" x="521" y="-403.9" font-family="Times,serif" font-size="14.00">destroy</text>
<text text-anchor="start" x="521" y="-387.1" font-family="Times,serif" font-size="14.00">edit</text>
<text text-anchor="start" x="521" y="-370.3" font-family="Times,serif" font-size="14.00">index</text>
<text text-anchor="start" x="521" y="-353.5" font-family="Times,serif" font-size="14.00">new</text>
<text text-anchor="start" x="521" y="-336.7" font-family="Times,serif" font-size="14.00">show</text>
<text text-anchor="start" x="521" y="-319.9" font-family="Times,serif" font-size="14.00">update</text>
<polyline fill="none" stroke="black" points="513,-313.1 715.635,-313.1 "/>
<polyline fill="none" stroke="black" points="513,-289.1 715.635,-289.1 "/>
<text text-anchor="start" x="521" y="-271.1" font-family="Times,serif" font-size="14.00">_layout</text>
<text text-anchor="start" x="521" y="-254.3" font-family="Times,serif" font-size="14.00">_run_process_action_callbacks</text>
</g>
<!-- CookbooksController -->
<g id="node4" class="node"><title>CookbooksController</title>
<polyline fill="none" stroke="black" points="145,-627.5 258.331,-627.5 "/>
<path fill="none" stroke="black" d="M258.331,-627.5C264.331,-627.5 270.331,-633.5 270.331,-639.5"/>
<polyline fill="none" stroke="black" points="270.331,-639.5 270.331,-814.7 "/>
<path fill="none" stroke="black" d="M270.331,-814.7C270.331,-820.7 264.331,-826.7 258.331,-826.7"/>
<polyline fill="none" stroke="black" points="258.331,-826.7 145,-826.7 "/>
<path fill="none" stroke="black" d="M145,-826.7C139,-826.7 133,-820.7 133,-814.7"/>
<polyline fill="none" stroke="black" points="133,-814.7 133,-639.5 "/>
<path fill="none" stroke="black" d="M133,-639.5C133,-633.5 139,-627.5 145,-627.5"/>
<text text-anchor="middle" x="201.666" y="-808.7" font-family="Times,serif" font-size="14.00">CookbooksController</text>
<polyline fill="none" stroke="black" points="133,-801.9 270.331,-801.9 "/>
<text text-anchor="start" x="141" y="-783.9" font-family="Times,serif" font-size="14.00">create</text>
<text text-anchor="start" x="141" y="-767.1" font-family="Times,serif" font-size="14.00">destroy</text>
<text text-anchor="start" x="141" y="-750.3" font-family="Times,serif" font-size="14.00">edit</text>
<text text-anchor="start" x="141" y="-733.5" font-family="Times,serif" font-size="14.00">index</text>
<text text-anchor="start" x="141" y="-716.7" font-family="Times,serif" font-size="14.00">new</text>
<text text-anchor="start" x="141" y="-699.9" font-family="Times,serif" font-size="14.00">show</text>
<text text-anchor="start" x="141" y="-683.1" font-family="Times,serif" font-size="14.00">update</text>
<polyline fill="none" stroke="black" points="133,-676.3 270.331,-676.3 "/>
<polyline fill="none" stroke="black" points="133,-652.3 270.331,-652.3 "/>
<text text-anchor="start" x="141" y="-634.3" font-family="Times,serif" font-size="14.00">_layout</text>
</g>
<!-- FriendshipsController -->
<g id="node5" class="node"><title>FriendshipsController</title>
<polyline fill="none" stroke="black" points="753,-741.5 867.883,-741.5 "/>
<path fill="none" stroke="black" d="M867.883,-741.5C873.883,-741.5 879.883,-747.5 879.883,-753.5"/>
<polyline fill="none" stroke="black" points="879.883,-753.5 879.883,-844.7 "/>
<path fill="none" stroke="black" d="M879.883,-844.7C879.883,-850.7 873.883,-856.7 867.883,-856.7"/>
<polyline fill="none" stroke="black" points="867.883,-856.7 753,-856.7 "/>
<path fill="none" stroke="black" d="M753,-856.7C747,-856.7 741,-850.7 741,-844.7"/>
<polyline fill="none" stroke="black" points="741,-844.7 741,-753.5 "/>
<path fill="none" stroke="black" d="M741,-753.5C741,-747.5 747,-741.5 753,-741.5"/>
<text text-anchor="middle" x="810.441" y="-838.7" font-family="Times,serif" font-size="14.00">FriendshipsController</text>
<polyline fill="none" stroke="black" points="741,-831.9 879.883,-831.9 "/>
<text text-anchor="start" x="749" y="-813.9" font-family="Times,serif" font-size="14.00">create</text>
<text text-anchor="start" x="749" y="-797.1" font-family="Times,serif" font-size="14.00">destroy</text>
<polyline fill="none" stroke="black" points="741,-790.3 879.883,-790.3 "/>
<polyline fill="none" stroke="black" points="741,-766.3 879.883,-766.3 "/>
<text text-anchor="start" x="749" y="-748.3" font-family="Times,serif" font-size="14.00">_layout</text>
</g>
<!-- IdentitiesController -->
<g id="node6" class="node"><title>IdentitiesController</title>
<polyline fill="none" stroke="black" points="772,-0.5 873.642,-0.5 "/>
<path fill="none" stroke="black" d="M873.642,-0.5C879.642,-0.5 885.642,-6.5 885.642,-12.5"/>
<polyline fill="none" stroke="black" points="885.642,-12.5 885.642,-86.9 "/>
<path fill="none" stroke="black" d="M885.642,-86.9C885.642,-92.9 879.642,-98.9 873.642,-98.9"/>
<polyline fill="none" stroke="black" points="873.642,-98.9 772,-98.9 "/>
<path fill="none" stroke="black" d="M772,-98.9C766,-98.9 760,-92.9 760,-86.9"/>
<polyline fill="none" stroke="black" points="760,-86.9 760,-12.5 "/>
<path fill="none" stroke="black" d="M760,-12.5C760,-6.5 766,-0.5 772,-0.5"/>
<text text-anchor="middle" x="822.821" y="-80.9" font-family="Times,serif" font-size="14.00">IdentitiesController</text>
<polyline fill="none" stroke="black" points="760,-74.1 885.642,-74.1 "/>
<text text-anchor="start" x="768" y="-56.1" font-family="Times,serif" font-size="14.00">new</text>
<polyline fill="none" stroke="black" points="760,-49.3 885.642,-49.3 "/>
<polyline fill="none" stroke="black" points="760,-25.3 885.642,-25.3 "/>
<text text-anchor="start" x="768" y="-7.3" font-family="Times,serif" font-size="14.00">_layout</text>
</g>
<!-- LikesController -->
<g id="node7" class="node"><title>LikesController</title>
<polyline fill="none" stroke="black" points="145,-152.5 225.648,-152.5 "/>
<path fill="none" stroke="black" d="M225.648,-152.5C231.648,-152.5 237.648,-158.5 237.648,-164.5"/>
<polyline fill="none" stroke="black" points="237.648,-164.5 237.648,-339.7 "/>
<path fill="none" stroke="black" d="M237.648,-339.7C237.648,-345.7 231.648,-351.7 225.648,-351.7"/>
<polyline fill="none" stroke="black" points="225.648,-351.7 145,-351.7 "/>
<path fill="none" stroke="black" d="M145,-351.7C139,-351.7 133,-345.7 133,-339.7"/>
<polyline fill="none" stroke="black" points="133,-339.7 133,-164.5 "/>
<path fill="none" stroke="black" d="M133,-164.5C133,-158.5 139,-152.5 145,-152.5"/>
<text text-anchor="middle" x="185.324" y="-333.7" font-family="Times,serif" font-size="14.00">LikesController</text>
<polyline fill="none" stroke="black" points="133,-326.9 237.648,-326.9 "/>
<text text-anchor="start" x="141" y="-308.9" font-family="Times,serif" font-size="14.00">create</text>
<text text-anchor="start" x="141" y="-292.1" font-family="Times,serif" font-size="14.00">destroy</text>
<text text-anchor="start" x="141" y="-275.3" font-family="Times,serif" font-size="14.00">edit</text>
<text text-anchor="start" x="141" y="-258.5" font-family="Times,serif" font-size="14.00">index</text>
<text text-anchor="start" x="141" y="-241.7" font-family="Times,serif" font-size="14.00">new</text>
<text text-anchor="start" x="141" y="-224.9" font-family="Times,serif" font-size="14.00">show</text>
<text text-anchor="start" x="141" y="-208.1" font-family="Times,serif" font-size="14.00">update</text>
<polyline fill="none" stroke="black" points="133,-201.3 237.648,-201.3 "/>
<polyline fill="none" stroke="black" points="133,-177.3 237.648,-177.3 "/>
<text text-anchor="start" x="141" y="-159.3" font-family="Times,serif" font-size="14.00">_layout</text>
</g>
<!-- PostsController -->
<g id="node8" class="node"><title>PostsController</title>
<polyline fill="none" stroke="black" points="639,-19.5 718.117,-19.5 "/>
<path fill="none" stroke="black" d="M718.117,-19.5C724.117,-19.5 730.117,-25.5 730.117,-31.5"/>
<polyline fill="none" stroke="black" points="730.117,-31.5 730.117,-206.7 "/>
<path fill="none" stroke="black" d="M730.117,-206.7C730.117,-212.7 724.117,-218.7 718.117,-218.7"/>
<polyline fill="none" stroke="black" points="718.117,-218.7 639,-218.7 "/>
<path fill="none" stroke="black" d="M639,-218.7C633,-218.7 627,-212.7 627,-206.7"/>
<polyline fill="none" stroke="black" points="627,-206.7 627,-31.5 "/>
<path fill="none" stroke="black" d="M627,-31.5C627,-25.5 633,-19.5 639,-19.5"/>
<text text-anchor="middle" x="678.559" y="-200.7" font-family="Times,serif" font-size="14.00">PostsController</text>
<polyline fill="none" stroke="black" points="627,-193.9 730.117,-193.9 "/>
<text text-anchor="start" x="635" y="-175.9" font-family="Times,serif" font-size="14.00">create</text>
<text text-anchor="start" x="635" y="-159.1" font-family="Times,serif" font-size="14.00">destroy</text>
<text text-anchor="start" x="635" y="-142.3" font-family="Times,serif" font-size="14.00">edit</text>
<text text-anchor="start" x="635" y="-125.5" font-family="Times,serif" font-size="14.00">index</text>
<text text-anchor="start" x="635" y="-108.7" font-family="Times,serif" font-size="14.00">new</text>
<text text-anchor="start" x="635" y="-91.9" font-family="Times,serif" font-size="14.00">show</text>
<text text-anchor="start" x="635" y="-75.1" font-family="Times,serif" font-size="14.00">update</text>
<polyline fill="none" stroke="black" points="627,-68.3 730.117,-68.3 "/>
<polyline fill="none" stroke="black" points="627,-44.3 730.117,-44.3 "/>
<text text-anchor="start" x="635" y="-26.3" font-family="Times,serif" font-size="14.00">_layout</text>
</g>
<!-- RecipeCookbooksController -->
<g id="node9" class="node"><title>RecipeCookbooksController</title>
<polyline fill="none" stroke="black" points="316,-532.5 468.2,-532.5 "/>
<path fill="none" stroke="black" d="M468.2,-532.5C474.2,-532.5 480.2,-538.5 480.2,-544.5"/>
<polyline fill="none" stroke="black" points="480.2,-544.5 480.2,-719.7 "/>
<path fill="none" stroke="black" d="M480.2,-719.7C480.2,-725.7 474.2,-731.7 468.2,-731.7"/>
<polyline fill="none" stroke="black" points="468.2,-731.7 316,-731.7 "/>
<path fill="none" stroke="black" d="M316,-731.7C310,-731.7 304,-725.7 304,-719.7"/>
<polyline fill="none" stroke="black" points="304,-719.7 304,-544.5 "/>
<path fill="none" stroke="black" d="M304,-544.5C304,-538.5 310,-532.5 316,-532.5"/>
<text text-anchor="middle" x="392.1" y="-713.7" font-family="Times,serif" font-size="14.00">RecipeCookbooksController</text>
<polyline fill="none" stroke="black" points="304,-706.9 480.2,-706.9 "/>
<text text-anchor="start" x="312" y="-688.9" font-family="Times,serif" font-size="14.00">create</text>
<text text-anchor="start" x="312" y="-672.1" font-family="Times,serif" font-size="14.00">destroy</text>
<text text-anchor="start" x="312" y="-655.3" font-family="Times,serif" font-size="14.00">edit</text>
<text text-anchor="start" x="312" y="-638.5" font-family="Times,serif" font-size="14.00">index</text>
<text text-anchor="start" x="312" y="-621.7" font-family="Times,serif" font-size="14.00">new</text>
<text text-anchor="start" x="312" y="-604.9" font-family="Times,serif" font-size="14.00">show</text>
<text text-anchor="start" x="312" y="-588.1" font-family="Times,serif" font-size="14.00">update</text>
<polyline fill="none" stroke="black" points="304,-581.3 480.2,-581.3 "/>
<polyline fill="none" stroke="black" points="304,-557.3 480.2,-557.3 "/>
<text text-anchor="start" x="312" y="-539.3" font-family="Times,serif" font-size="14.00">_layout</text>
</g>
<!-- RecipePicturesController -->
<g id="node10" class="node"><title>RecipePicturesController</title>
<polyline fill="none" stroke="black" points="563,-551.5 696.518,-551.5 "/>
<path fill="none" stroke="black" d="M696.518,-551.5C702.518,-551.5 708.518,-557.5 708.518,-563.5"/>
<polyline fill="none" stroke="black" points="708.518,-563.5 708.518,-738.7 "/>
<path fill="none" stroke="black" d="M708.518,-738.7C708.518,-744.7 702.518,-750.7 696.518,-750.7"/>
<polyline fill="none" stroke="black" points="696.518,-750.7 563,-750.7 "/>
<path fill="none" stroke="black" d="M563,-750.7C557,-750.7 551,-744.7 551,-738.7"/>
<polyline fill="none" stroke="black" points="551,-738.7 551,-563.5 "/>
<path fill="none" stroke="black" d="M551,-563.5C551,-557.5 557,-551.5 563,-551.5"/>
<text text-anchor="middle" x="629.759" y="-732.7" font-family="Times,serif" font-size="14.00">RecipePicturesController</text>
<polyline fill="none" stroke="black" points="551,-725.9 708.518,-725.9 "/>
<text text-anchor="start" x="559" y="-707.9" font-family="Times,serif" font-size="14.00">create</text>
<text text-anchor="start" x="559" y="-691.1" font-family="Times,serif" font-size="14.00">destroy</text>
<text text-anchor="start" x="559" y="-674.3" font-family="Times,serif" font-size="14.00">edit</text>
<text text-anchor="start" x="559" y="-657.5" font-family="Times,serif" font-size="14.00">index</text>
<text text-anchor="start" x="559" y="-640.7" font-family="Times,serif" font-size="14.00">new</text>
<text text-anchor="start" x="559" y="-623.9" font-family="Times,serif" font-size="14.00">show</text>
<text text-anchor="start" x="559" y="-607.1" font-family="Times,serif" font-size="14.00">update</text>
<polyline fill="none" stroke="black" points="551,-600.3 708.518,-600.3 "/>
<polyline fill="none" stroke="black" points="551,-576.3 708.518,-576.3 "/>
<text text-anchor="start" x="559" y="-558.3" font-family="Times,serif" font-size="14.00">_layout</text>
</g>
<!-- RecipesController -->
<g id="node11" class="node"><title>RecipesController</title>
<polyline fill="none" stroke="black" points="278,-247.5 463.635,-247.5 "/>
<path fill="none" stroke="black" d="M463.635,-247.5C469.635,-247.5 475.635,-253.5 475.635,-259.5"/>
<polyline fill="none" stroke="black" points="475.635,-259.5 475.635,-485.1 "/>
<path fill="none" stroke="black" d="M475.635,-485.1C475.635,-491.1 469.635,-497.1 463.635,-497.1"/>
<polyline fill="none" stroke="black" points="463.635,-497.1 278,-497.1 "/>
<path fill="none" stroke="black" d="M278,-497.1C272,-497.1 266,-491.1 266,-485.1"/>
<polyline fill="none" stroke="black" points="266,-485.1 266,-259.5 "/>
<path fill="none" stroke="black" d="M266,-259.5C266,-253.5 272,-247.5 278,-247.5"/>
<text text-anchor="middle" x="370.817" y="-479.1" font-family="Times,serif" font-size="14.00">RecipesController</text>
<polyline fill="none" stroke="black" points="266,-472.3 475.635,-472.3 "/>
<text text-anchor="start" x="274" y="-454.3" font-family="Times,serif" font-size="14.00">_one_time_conditions_valid_174?</text>
<text text-anchor="start" x="274" y="-437.5" font-family="Times,serif" font-size="14.00">_one_time_conditions_valid_178?</text>
<text text-anchor="start" x="274" y="-420.7" font-family="Times,serif" font-size="14.00">create</text>
<text text-anchor="start" x="274" y="-403.9" font-family="Times,serif" font-size="14.00">destroy</text>
<text text-anchor="start" x="274" y="-387.1" font-family="Times,serif" font-size="14.00">edit</text>
<text text-anchor="start" x="274" y="-370.3" font-family="Times,serif" font-size="14.00">index</text>
<text text-anchor="start" x="274" y="-353.5" font-family="Times,serif" font-size="14.00">new</text>
<text text-anchor="start" x="274" y="-336.7" font-family="Times,serif" font-size="14.00">show</text>
<text text-anchor="start" x="274" y="-319.9" font-family="Times,serif" font-size="14.00">update</text>
<polyline fill="none" stroke="black" points="266,-313.1 475.635,-313.1 "/>
<polyline fill="none" stroke="black" points="266,-289.1 475.635,-289.1 "/>
<text text-anchor="start" x="274" y="-271.1" font-family="Times,serif" font-size="14.00">_layout</text>
<text text-anchor="start" x="274" y="-254.3" font-family="Times,serif" font-size="14.00">_run_process_action_callbacks</text>
</g>
<!-- SessionsController -->
<g id="node12" class="node"><title>SessionsController</title>
<polyline fill="none" stroke="black" points="753,-551.5 850.779,-551.5 "/>
<path fill="none" stroke="black" d="M850.779,-551.5C856.779,-551.5 862.779,-557.5 862.779,-563.5"/>
<polyline fill="none" stroke="black" points="862.779,-563.5 862.779,-688.3 "/>
<path fill="none" stroke="black" d="M862.779,-688.3C862.779,-694.3 856.779,-700.3 850.779,-700.3"/>
<polyline fill="none" stroke="black" points="850.779,-700.3 753,-700.3 "/>
<path fill="none" stroke="black" d="M753,-700.3C747,-700.3 741,-694.3 741,-688.3"/>
<polyline fill="none" stroke="black" points="741,-688.3 741,-563.5 "/>
<path fill="none" stroke="black" d="M741,-563.5C741,-557.5 747,-551.5 753,-551.5"/>
<text text-anchor="middle" x="801.89" y="-682.3" font-family="Times,serif" font-size="14.00">SessionsController</text>
<polyline fill="none" stroke="black" points="741,-675.5 862.779,-675.5 "/>
<text text-anchor="start" x="749" y="-657.5" font-family="Times,serif" font-size="14.00">create</text>
<text text-anchor="start" x="749" y="-640.7" font-family="Times,serif" font-size="14.00">destroy</text>
<text text-anchor="start" x="749" y="-623.9" font-family="Times,serif" font-size="14.00">failure</text>
<text text-anchor="start" x="749" y="-607.1" font-family="Times,serif" font-size="14.00">new</text>
<polyline fill="none" stroke="black" points="741,-600.3 862.779,-600.3 "/>
<polyline fill="none" stroke="black" points="741,-576.3 862.779,-576.3 "/>
<text text-anchor="start" x="749" y="-558.3" font-family="Times,serif" font-size="14.00">_layout</text>
</g>
<!-- TagsController -->
<g id="node13" class="node"><title>TagsController</title>
<polyline fill="none" stroke="black" points="145,-380.5 220.781,-380.5 "/>
<path fill="none" stroke="black" d="M220.781,-380.5C226.781,-380.5 232.781,-386.5 232.781,-392.5"/>
<polyline fill="none" stroke="black" points="232.781,-392.5 232.781,-567.7 "/>
<path fill="none" stroke="black" d="M232.781,-567.7C232.781,-573.7 226.781,-579.7 220.781,-579.7"/>
<polyline fill="none" stroke="black" points="220.781,-579.7 145,-579.7 "/>
<path fill="none" stroke="black" d="M145,-579.7C139,-579.7 133,-573.7 133,-567.7"/>
<polyline fill="none" stroke="black" points="133,-567.7 133,-392.5 "/>
<path fill="none" stroke="black" d="M133,-392.5C133,-386.5 139,-380.5 145,-380.5"/>
<text text-anchor="middle" x="182.891" y="-561.7" font-family="Times,serif" font-size="14.00">TagsController</text>
<polyline fill="none" stroke="black" points="133,-554.9 232.781,-554.9 "/>
<text text-anchor="start" x="141" y="-536.9" font-family="Times,serif" font-size="14.00">create</text>
<text text-anchor="start" x="141" y="-520.1" font-family="Times,serif" font-size="14.00">destroy</text>
<text text-anchor="start" x="141" y="-503.3" font-family="Times,serif" font-size="14.00">edit</text>
<text text-anchor="start" x="141" y="-486.5" font-family="Times,serif" font-size="14.00">index</text>
<text text-anchor="start" x="141" y="-469.7" font-family="Times,serif" font-size="14.00">new</text>
<text text-anchor="start" x="141" y="-452.9" font-family="Times,serif" font-size="14.00">show</text>
<text text-anchor="start" x="141" y="-436.1" font-family="Times,serif" font-size="14.00">update</text>
<polyline fill="none" stroke="black" points="133,-429.3 232.781,-429.3 "/>
<polyline fill="none" stroke="black" points="133,-405.3 232.781,-405.3 "/>
<text text-anchor="start" x="141" y="-387.3" font-family="Times,serif" font-size="14.00">_layout</text>
</g>
<!-- TimelineController -->
<g id="node14" class="node"><title>TimelineController</title>
<polyline fill="none" stroke="black" points="772,-133.5 871.598,-133.5 "/>
<path fill="none" stroke="black" d="M871.598,-133.5C877.598,-133.5 883.598,-139.5 883.598,-145.5"/>
<polyline fill="none" stroke="black" points="883.598,-145.5 883.598,-219.9 "/>
<path fill="none" stroke="black" d="M883.598,-219.9C883.598,-225.9 877.598,-231.9 871.598,-231.9"/>
<polyline fill="none" stroke="black" points="871.598,-231.9 772,-231.9 "/>
<path fill="none" stroke="black" d="M772,-231.9C766,-231.9 760,-225.9 760,-219.9"/>
<polyline fill="none" stroke="black" points="760,-219.9 760,-145.5 "/>
<path fill="none" stroke="black" d="M760,-145.5C760,-139.5 766,-133.5 772,-133.5"/>
<text text-anchor="middle" x="821.799" y="-213.9" font-family="Times,serif" font-size="14.00">TimelineController</text>
<polyline fill="none" stroke="black" points="760,-207.1 883.598,-207.1 "/>
<text text-anchor="start" x="768" y="-189.1" font-family="Times,serif" font-size="14.00">index</text>
<polyline fill="none" stroke="black" points="760,-182.3 883.598,-182.3 "/>
<polyline fill="none" stroke="black" points="760,-158.3 883.598,-158.3 "/>
<text text-anchor="start" x="768" y="-140.3" font-family="Times,serif" font-size="14.00">_layout</text>
</g>
<!-- UsersController -->
<g id="node15" class="node"><title>UsersController</title>
<polyline fill="none" stroke="black" points="12,-380.5 93.4277,-380.5 "/>
<path fill="none" stroke="black" d="M93.4277,-380.5C99.4277,-380.5 105.428,-386.5 105.428,-392.5"/>
<polyline fill="none" stroke="black" points="105.428,-392.5 105.428,-483.7 "/>
<path fill="none" stroke="black" d="M105.428,-483.7C105.428,-489.7 99.4277,-495.7 93.4277,-495.7"/>
<polyline fill="none" stroke="black" points="93.4277,-495.7 12,-495.7 "/>
<path fill="none" stroke="black" d="M12,-495.7C6,-495.7 0,-489.7 0,-483.7"/>
<polyline fill="none" stroke="black" points="0,-483.7 0,-392.5 "/>
<path fill="none" stroke="black" d="M0,-392.5C0,-386.5 6,-380.5 12,-380.5"/>
<text text-anchor="middle" x="52.7139" y="-477.7" font-family="Times,serif" font-size="14.00">UsersController</text>
<polyline fill="none" stroke="black" points="0,-470.9 105.428,-470.9 "/>
<text text-anchor="start" x="8" y="-452.9" font-family="Times,serif" font-size="14.00">index</text>
<text text-anchor="start" x="8" y="-436.1" font-family="Times,serif" font-size="14.00">show</text>
<polyline fill="none" stroke="black" points="0,-429.3 105.428,-429.3 "/>
<polyline fill="none" stroke="black" points="0,-405.3 105.428,-405.3 "/>
<text text-anchor="start" x="8" y="-387.3" font-family="Times,serif" font-size="14.00">_layout</text>
</g>
</g>
</svg>
