<?xml version="1.0" encoding="UTF-8" standalone="no"?>
<!DOCTYPE svg PUBLIC "-//W3C//DTD SVG 1.1//EN"
 "http://www.w3.org/Graphics/SVG/1.1/DTD/svg11.dtd">
<!-- Generated by graphviz version 2.28.0 (20120127.1228)
 -->
<!-- Title: models_diagram Pages: 1 -->
<svg width="1589pt" height="578pt"
 viewBox="0.00 0.00 1589.00 578.00" xmlns="http://www.w3.org/2000/svg" xmlns:xlink="http://www.w3.org/1999/xlink">
<g id="graph1" class="graph" transform="scale(1 1) rotate(0) translate(4 574)">
<title>models_diagram</title>
<polygon fill="white" stroke="white" points="-4,5 -4,-574 1586,-574 1586,5 -4,5"/>
<!-- _diagram_info -->
<g id="node1" class="node"><title>_diagram_info</title>
<text text-anchor="start" x="42.3123" y="-545" font-family="Times,serif" font-size="13.00">Models diagram</text>
<text text-anchor="start" x="42.3123" y="-529.4" font-family="Times,serif" font-size="13.00">Date: Jan 27 2012 &#45; 13:34</text>
<text text-anchor="start" x="42.3123" y="-513.8" font-family="Times,serif" font-size="13.00">Migration version: 20120124220357</text>
<text text-anchor="start" x="42.3123" y="-498.2" font-family="Times,serif" font-size="13.00">Generated by RailRoady 1.0.5</text>
<text text-anchor="start" x="42.3123" y="-482.6" font-family="Times,serif" font-size="13.00">http://railroady.prestonlee.com</text>
</g>
<!-- Category -->
<g id="node2" class="node"><title>Category</title>
<polyline fill="none" stroke="black" points="11.4946,-312.4 120.505,-312.4 "/>
<path fill="none" stroke="black" d="M120.505,-312.4C126.505,-312.4 132.505,-318.4 132.505,-324.4"/>
<polyline fill="none" stroke="black" points="132.505,-324.4 132.505,-383.6 "/>
<path fill="none" stroke="black" d="M132.505,-383.6C132.505,-389.6 126.505,-395.6 120.505,-395.6"/>
<polyline fill="none" stroke="black" points="120.505,-395.6 11.4946,-395.6 "/>
<path fill="none" stroke="black" d="M11.4946,-395.6C5.49463,-395.6 -0.505371,-389.6 -0.505371,-383.6"/>
<polyline fill="none" stroke="black" points="-0.505371,-383.6 -0.505371,-324.4 "/>
<path fill="none" stroke="black" d="M-0.505371,-324.4C-0.505371,-318.4 5.49463,-312.4 11.4946,-312.4"/>
<text text-anchor="middle" x="66" y="-377.6" font-family="Times,serif" font-size="14.00">Category</text>
<polyline fill="none" stroke="black" points="-0.505371,-370.8 132.505,-370.8 "/>
<text text-anchor="start" x="7.49463" y="-352.8" font-family="Times,serif" font-size="14.00">name :string</text>
<text text-anchor="start" x="7.49463" y="-336" font-family="Times,serif" font-size="14.00">created_at :datetime</text>
<text text-anchor="start" x="7.49463" y="-319.2" font-family="Times,serif" font-size="14.00">updated_at :datetime</text>
</g>
<!-- Ingredient -->
<g id="node7" class="node"><title>Ingredient</title>
<polyline fill="none" stroke="black" points="11.4946,-123 120.505,-123 "/>
<path fill="none" stroke="black" d="M120.505,-123C126.505,-123 132.505,-129 132.505,-135"/>
<polyline fill="none" stroke="black" points="132.505,-135 132.505,-211 "/>
<path fill="none" stroke="black" d="M132.505,-211C132.505,-217 126.505,-223 120.505,-223"/>
<polyline fill="none" stroke="black" points="120.505,-223 11.4946,-223 "/>
<path fill="none" stroke="black" d="M11.4946,-223C5.49463,-223 -0.505371,-217 -0.505371,-211"/>
<polyline fill="none" stroke="black" points="-0.505371,-211 -0.505371,-135 "/>
<path fill="none" stroke="black" d="M-0.505371,-135C-0.505371,-129 5.49463,-123 11.4946,-123"/>
<text text-anchor="middle" x="66" y="-205" font-family="Times,serif" font-size="14.00">Ingredient</text>
<polyline fill="none" stroke="black" points="-0.505371,-198.2 132.505,-198.2 "/>
<text text-anchor="start" x="7.49463" y="-180.2" font-family="Times,serif" font-size="14.00">quantity :integer</text>
<text text-anchor="start" x="7.49463" y="-163.4" font-family="Times,serif" font-size="14.00">created_at :datetime</text>
<text text-anchor="start" x="7.49463" y="-146.6" font-family="Times,serif" font-size="14.00">updated_at :datetime</text>
<text text-anchor="start" x="7.49463" y="-129.8" font-family="Times,serif" font-size="14.00">name :string</text>
</g>
<!-- Category&#45;&gt;Ingredient -->
<g id="edge2" class="edge"><title>Category&#45;&gt;Ingredient</title>
<path fill="none" stroke="black" d="M59.9084,-304.065C59.1484,-282.226 59.0463,-256.298 59.6023,-233.361"/>
<ellipse fill="none" stroke="black" cx="60.0802" cy="-308.385" rx="4" ry="4"/>
<polygon fill="black" stroke="black" points="59.6112,-233.054 64.4022,-223.19 59.7577,-228.056 59.9041,-223.059 59.9041,-223.059 59.9041,-223.059 59.7577,-228.056 55.406,-222.927 59.6112,-233.054 59.6112,-233.054"/>
</g>
<!-- Comment -->
<g id="node3" class="node"><title>Comment</title>
<polyline fill="none" stroke="black" points="388.495,-131.4 497.505,-131.4 "/>
<path fill="none" stroke="black" d="M497.505,-131.4C503.505,-131.4 509.505,-137.4 509.505,-143.4"/>
<polyline fill="none" stroke="black" points="509.505,-143.4 509.505,-202.6 "/>
<path fill="none" stroke="black" d="M509.505,-202.6C509.505,-208.6 503.505,-214.6 497.505,-214.6"/>
<polyline fill="none" stroke="black" points="497.505,-214.6 388.495,-214.6 "/>
<path fill="none" stroke="black" d="M388.495,-214.6C382.495,-214.6 376.495,-208.6 376.495,-202.6"/>
<polyline fill="none" stroke="black" points="376.495,-202.6 376.495,-143.4 "/>
<path fill="none" stroke="black" d="M376.495,-143.4C376.495,-137.4 382.495,-131.4 388.495,-131.4"/>
<text text-anchor="middle" x="443" y="-196.6" font-family="Times,serif" font-size="14.00">Comment</text>
<polyline fill="none" stroke="black" points="376.495,-189.8 509.505,-189.8 "/>
<text text-anchor="start" x="384.495" y="-171.8" font-family="Times,serif" font-size="14.00">message :string</text>
<text text-anchor="start" x="384.495" y="-155" font-family="Times,serif" font-size="14.00">created_at :datetime</text>
<text text-anchor="start" x="384.495" y="-138.2" font-family="Times,serif" font-size="14.00">updated_at :datetime</text>
</g>
<!-- Cookbook -->
<g id="node4" class="node"><title>Cookbook</title>
<polyline fill="none" stroke="black" points="271.495,-469 380.505,-469 "/>
<path fill="none" stroke="black" d="M380.505,-469C386.505,-469 392.505,-475 392.505,-481"/>
<polyline fill="none" stroke="black" points="392.505,-481 392.505,-557 "/>
<path fill="none" stroke="black" d="M392.505,-557C392.505,-563 386.505,-569 380.505,-569"/>
<polyline fill="none" stroke="black" points="380.505,-569 271.495,-569 "/>
<path fill="none" stroke="black" d="M271.495,-569C265.495,-569 259.495,-563 259.495,-557"/>
<polyline fill="none" stroke="black" points="259.495,-557 259.495,-481 "/>
<path fill="none" stroke="black" d="M259.495,-481C259.495,-475 265.495,-469 271.495,-469"/>
<text text-anchor="middle" x="326" y="-551" font-family="Times,serif" font-size="14.00">Cookbook</text>
<polyline fill="none" stroke="black" points="259.495,-544.2 392.505,-544.2 "/>
<text text-anchor="start" x="267.495" y="-526.2" font-family="Times,serif" font-size="14.00">name :string</text>
<text text-anchor="start" x="267.495" y="-509.4" font-family="Times,serif" font-size="14.00">description :string</text>
<text text-anchor="start" x="267.495" y="-492.6" font-family="Times,serif" font-size="14.00">created_at :datetime</text>
<text text-anchor="start" x="267.495" y="-475.8" font-family="Times,serif" font-size="14.00">updated_at :datetime</text>
</g>
<!-- Post -->
<g id="node9" class="node"><title>Post</title>
<polyline fill="none" stroke="black" points="237.481,-131.4 346.519,-131.4 "/>
<path fill="none" stroke="black" d="M346.519,-131.4C352.519,-131.4 358.519,-137.4 358.519,-143.4"/>
<polyline fill="none" stroke="black" points="358.519,-143.4 358.519,-202.6 "/>
<path fill="none" stroke="black" d="M358.519,-202.6C358.519,-208.6 352.519,-214.6 346.519,-214.6"/>
<polyline fill="none" stroke="black" points="346.519,-214.6 237.481,-214.6 "/>
<path fill="none" stroke="black" d="M237.481,-214.6C231.481,-214.6 225.481,-208.6 225.481,-202.6"/>
<polyline fill="none" stroke="black" points="225.481,-202.6 225.481,-143.4 "/>
<path fill="none" stroke="black" d="M225.481,-143.4C225.481,-137.4 231.481,-131.4 237.481,-131.4"/>
<text text-anchor="middle" x="292" y="-196.6" font-family="Times,serif" font-size="14.00">Post</text>
<polyline fill="none" stroke="black" points="225.481,-189.8 358.519,-189.8 "/>
<text text-anchor="start" x="233.481" y="-171.8" font-family="Times,serif" font-size="14.00">postable_type :string</text>
<text text-anchor="start" x="233.481" y="-155" font-family="Times,serif" font-size="14.00">created_at :datetime</text>
<text text-anchor="start" x="233.481" y="-138.2" font-family="Times,serif" font-size="14.00">updated_at :datetime</text>
</g>
<!-- Cookbook&#45;&gt;Post -->
<g id="edge4" class="edge"><title>Cookbook&#45;&gt;Post</title>
<path fill="none" stroke="black" d="M337.525,-460.706C345.399,-411.658 352.238,-339.438 339,-278 334.873,-258.849 326.923,-238.977 318.719,-221.798"/>
<ellipse fill="none" stroke="black" cx="336.858" cy="-464.731" rx="4.00001" ry="4.00001"/>
<ellipse fill="black" stroke="black" cx="316.957" cy="-218.203" rx="4.00002" ry="4.00002"/>
</g>
<!-- Recipe -->
<g id="node10" class="node"><title>Recipe</title>
<polyline fill="none" stroke="black" points="185.057,-278.8 318.943,-278.8 "/>
<path fill="none" stroke="black" d="M318.943,-278.8C324.943,-278.8 330.943,-284.8 330.943,-290.8"/>
<polyline fill="none" stroke="black" points="330.943,-290.8 330.943,-417.2 "/>
<path fill="none" stroke="black" d="M330.943,-417.2C330.943,-423.2 324.943,-429.2 318.943,-429.2"/>
<polyline fill="none" stroke="black" points="318.943,-429.2 185.057,-429.2 "/>
<path fill="none" stroke="black" d="M185.057,-429.2C179.057,-429.2 173.057,-423.2 173.057,-417.2"/>
<polyline fill="none" stroke="black" points="173.057,-417.2 173.057,-290.8 "/>
<path fill="none" stroke="black" d="M173.057,-290.8C173.057,-284.8 179.057,-278.8 185.057,-278.8"/>
<text text-anchor="middle" x="252" y="-411.2" font-family="Times,serif" font-size="14.00">Recipe</text>
<polyline fill="none" stroke="black" points="173.057,-404.4 330.943,-404.4 "/>
<text text-anchor="start" x="181.057" y="-386.4" font-family="Times,serif" font-size="14.00">name :string</text>
<text text-anchor="start" x="181.057" y="-369.6" font-family="Times,serif" font-size="14.00">instructions :string</text>
<text text-anchor="start" x="181.057" y="-352.8" font-family="Times,serif" font-size="14.00">preperation_time :integer</text>
<text text-anchor="start" x="181.057" y="-336" font-family="Times,serif" font-size="14.00">course :string</text>
<text text-anchor="start" x="181.057" y="-319.2" font-family="Times,serif" font-size="14.00">created_at :datetime</text>
<text text-anchor="start" x="181.057" y="-302.4" font-family="Times,serif" font-size="14.00">updated_at :datetime</text>
<text text-anchor="start" x="181.057" y="-285.6" font-family="Times,serif" font-size="14.00">description :string</text>
</g>
<!-- Cookbook&#45;&gt;Recipe -->
<g id="edge6" class="edge"><title>Cookbook&#45;&gt;Recipe</title>
<path fill="none" stroke="black" d="M299.432,-459.479C296.392,-452.782 293.249,-445.859 290.095,-438.913"/>
<polygon fill="black" stroke="black" points="299.463,-459.547 299.499,-470.513 301.53,-464.099 303.597,-468.652 303.597,-468.652 303.597,-468.652 301.53,-464.099 307.694,-466.792 299.463,-459.547 299.463,-459.547"/>
<polygon fill="black" stroke="black" points="289.931,-438.551 289.895,-427.585 287.864,-433.998 285.797,-429.446 285.797,-429.446 285.797,-429.446 287.864,-433.998 281.7,-431.306 289.931,-438.551 289.931,-438.551"/>
</g>
<!-- Friendship -->
<g id="node5" class="node"><title>Friendship</title>
<polyline fill="none" stroke="black" points="542.495,-139.8 651.505,-139.8 "/>
<path fill="none" stroke="black" d="M651.505,-139.8C657.505,-139.8 663.505,-145.8 663.505,-151.8"/>
<polyline fill="none" stroke="black" points="663.505,-151.8 663.505,-194.2 "/>
<path fill="none" stroke="black" d="M663.505,-194.2C663.505,-200.2 657.505,-206.2 651.505,-206.2"/>
<polyline fill="none" stroke="black" points="651.505,-206.2 542.495,-206.2 "/>
<path fill="none" stroke="black" d="M542.495,-206.2C536.495,-206.2 530.495,-200.2 530.495,-194.2"/>
<polyline fill="none" stroke="black" points="530.495,-194.2 530.495,-151.8 "/>
<path fill="none" stroke="black" d="M530.495,-151.8C530.495,-145.8 536.495,-139.8 542.495,-139.8"/>
<text text-anchor="middle" x="597" y="-188.2" font-family="Times,serif" font-size="14.00">Friendship</text>
<polyline fill="none" stroke="black" points="530.495,-181.4 663.505,-181.4 "/>
<text text-anchor="start" x="538.495" y="-163.4" font-family="Times,serif" font-size="14.00">created_at :datetime</text>
<text text-anchor="start" x="538.495" y="-146.6" font-family="Times,serif" font-size="14.00">updated_at :datetime</text>
</g>
<!-- Identity -->
<g id="node6" class="node"><title>Identity</title>
<polyline fill="none" stroke="black" points="732.698,-295.6 857.302,-295.6 "/>
<path fill="none" stroke="black" d="M857.302,-295.6C863.302,-295.6 869.302,-301.6 869.302,-307.6"/>
<polyline fill="none" stroke="black" points="869.302,-307.6 869.302,-400.4 "/>
<path fill="none" stroke="black" d="M869.302,-400.4C869.302,-406.4 863.302,-412.4 857.302,-412.4"/>
<polyline fill="none" stroke="black" points="857.302,-412.4 732.698,-412.4 "/>
<path fill="none" stroke="black" d="M732.698,-412.4C726.698,-412.4 720.698,-406.4 720.698,-400.4"/>
<polyline fill="none" stroke="black" points="720.698,-400.4 720.698,-307.6 "/>
<path fill="none" stroke="black" d="M720.698,-307.6C720.698,-301.6 726.698,-295.6 732.698,-295.6"/>
<text text-anchor="middle" x="795" y="-394.4" font-family="Times,serif" font-size="14.00">Identity</text>
<polyline fill="none" stroke="black" points="720.698,-387.6 869.302,-387.6 "/>
<text text-anchor="start" x="728.698" y="-369.6" font-family="Times,serif" font-size="14.00">name :string</text>
<text text-anchor="start" x="728.698" y="-352.8" font-family="Times,serif" font-size="14.00">email :string</text>
<text text-anchor="start" x="728.698" y="-336" font-family="Times,serif" font-size="14.00">password_digest :string</text>
<text text-anchor="start" x="728.698" y="-319.2" font-family="Times,serif" font-size="14.00">created_at :datetime</text>
<text text-anchor="start" x="728.698" y="-302.4" font-family="Times,serif" font-size="14.00">updated_at :datetime</text>
</g>
<!-- Ingredient&#45;&gt;Category -->
<g id="edge10" class="edge"><title>Ingredient&#45;&gt;Category</title>
<path fill="none" stroke="black" d="M72.3431,-231.201C72.9594,-254.659 72.8756,-281.537 72.0916,-304.065"/>
<ellipse fill="none" stroke="black" cx="72.2173" cy="-227.057" rx="4" ry="4"/>
<ellipse fill="black" stroke="black" cx="71.9198" cy="-308.385" rx="4" ry="4"/>
</g>
<!-- Unit -->
<g id="node15" class="node"><title>Unit</title>
<polyline fill="none" stroke="black" points="11.4946,-0.4 120.505,-0.4 "/>
<path fill="none" stroke="black" d="M120.505,-0.4C126.505,-0.4 132.505,-6.4 132.505,-12.4"/>
<polyline fill="none" stroke="black" points="132.505,-12.4 132.505,-71.6 "/>
<path fill="none" stroke="black" d="M132.505,-71.6C132.505,-77.6 126.505,-83.6 120.505,-83.6"/>
<polyline fill="none" stroke="black" points="120.505,-83.6 11.4946,-83.6 "/>
<path fill="none" stroke="black" d="M11.4946,-83.6C5.49463,-83.6 -0.505371,-77.6 -0.505371,-71.6"/>
<polyline fill="none" stroke="black" points="-0.505371,-71.6 -0.505371,-12.4 "/>
<path fill="none" stroke="black" d="M-0.505371,-12.4C-0.505371,-6.4 5.49463,-0.4 11.4946,-0.4"/>
<text text-anchor="middle" x="66" y="-65.6" font-family="Times,serif" font-size="14.00">Unit</text>
<polyline fill="none" stroke="black" points="-0.505371,-58.8 132.505,-58.8 "/>
<text text-anchor="start" x="7.49463" y="-40.8" font-family="Times,serif" font-size="14.00">name :string</text>
<text text-anchor="start" x="7.49463" y="-24" font-family="Times,serif" font-size="14.00">created_at :datetime</text>
<text text-anchor="start" x="7.49463" y="-7.2" font-family="Times,serif" font-size="14.00">updated_at :datetime</text>
</g>
<!-- Ingredient&#45;&gt;Unit -->
<g id="edge12" class="edge"><title>Ingredient&#45;&gt;Unit</title>
<path fill="none" stroke="black" d="M59.2861,-114.566C59.2091,-107.064 59.2552,-99.4321 59.4244,-92.0841"/>
<ellipse fill="none" stroke="black" cx="59.357" cy="-118.863" rx="4" ry="4"/>
<ellipse fill="black" stroke="black" cx="59.559" cy="-87.6113" rx="4" ry="4"/>
</g>
<!-- Like -->
<g id="node8" class="node"><title>Like</title>
<polyline fill="none" stroke="black" points="1006.49,-485.8 1115.51,-485.8 "/>
<path fill="none" stroke="black" d="M1115.51,-485.8C1121.51,-485.8 1127.51,-491.8 1127.51,-497.8"/>
<polyline fill="none" stroke="black" points="1127.51,-497.8 1127.51,-540.2 "/>
<path fill="none" stroke="black" d="M1127.51,-540.2C1127.51,-546.2 1121.51,-552.2 1115.51,-552.2"/>
<polyline fill="none" stroke="black" points="1115.51,-552.2 1006.49,-552.2 "/>
<path fill="none" stroke="black" d="M1006.49,-552.2C1000.49,-552.2 994.495,-546.2 994.495,-540.2"/>
<polyline fill="none" stroke="black" points="994.495,-540.2 994.495,-497.8 "/>
<path fill="none" stroke="black" d="M994.495,-497.8C994.495,-491.8 1000.49,-485.8 1006.49,-485.8"/>
<text text-anchor="middle" x="1061" y="-534.2" font-family="Times,serif" font-size="14.00">Like</text>
<polyline fill="none" stroke="black" points="994.495,-527.4 1127.51,-527.4 "/>
<text text-anchor="start" x="1002.49" y="-509.4" font-family="Times,serif" font-size="14.00">created_at :datetime</text>
<text text-anchor="start" x="1002.49" y="-492.6" font-family="Times,serif" font-size="14.00">updated_at :datetime</text>
</g>
<!-- Post&#45;&gt;Recipe -->
<g id="edge14" class="edge"><title>Post&#45;&gt;Recipe</title>
<path fill="none" stroke="black" d="M287.177,-222.826C284.492,-237.069 281.136,-253.058 277.549,-268.826"/>
<ellipse fill="none" stroke="black" cx="287.955" cy="-218.591" rx="4.00001" ry="4.00001"/>
<polygon fill="black" stroke="black" points="277.532,-268.9 270.895,-277.629 276.406,-273.771 275.279,-278.643 275.279,-278.643 275.279,-278.643 276.406,-273.771 279.664,-279.657 277.532,-268.9 277.532,-268.9"/>
</g>
<!-- Recipe&#45;&gt;Comment -->
<g id="edge22" class="edge"><title>Recipe&#45;&gt;Comment</title>
<path fill="none" stroke="black" d="M337.125,-273.223C355.823,-255.7 375.058,-237.673 391.917,-221.873"/>
<ellipse fill="none" stroke="black" cx="333.984" cy="-276.166" rx="4.00002" ry="4.00002"/>
<polygon fill="black" stroke="black" points="392.189,-221.619 402.563,-218.064 395.837,-218.2 399.486,-214.781 399.486,-214.781 399.486,-214.781 395.837,-218.2 396.408,-211.497 392.189,-221.619 392.189,-221.619"/>
</g>
<!-- Recipe&#45;&gt;Ingredient -->
<g id="edge18" class="edge"><title>Recipe&#45;&gt;Ingredient</title>
<path fill="none" stroke="black" d="M168.779,-272.911C153.769,-258.466 138.416,-243.69 124.306,-230.112"/>
<ellipse fill="none" stroke="black" cx="171.853" cy="-275.869" rx="4.00002" ry="4.00002"/>
<polygon fill="black" stroke="black" points="124.255,-230.062 120.17,-219.886 120.652,-226.595 117.049,-223.128 117.049,-223.128 117.049,-223.128 120.652,-226.595 113.929,-226.37 124.255,-230.062 124.255,-230.062"/>
</g>
<!-- Recipe&#45;&gt;Post -->
<g id="edge16" class="edge"><title>Recipe&#45;&gt;Post</title>
<path fill="none" stroke="black" d="M263.673,-270.642C267.251,-254.236 271.205,-237.509 275.038,-222.683"/>
<ellipse fill="none" stroke="black" cx="262.794" cy="-274.732" rx="4.00001" ry="4.00001"/>
<ellipse fill="black" stroke="black" cx="276.133" cy="-218.524" rx="4.00001" ry="4.00001"/>
</g>
<!-- Item -->
<g id="node28" class="node"><title>Item</title>
<ellipse fill="none" stroke="black" cx="179" cy="-173" rx="28.5985" ry="18"/>
<text text-anchor="middle" x="179" y="-167.4" font-family="Times,serif" font-size="14.00">Item</text>
</g>
<!-- Recipe&#45;&gt;Item -->
<g id="edge20" class="edge"><title>Recipe&#45;&gt;Item</title>
<path fill="none" stroke="black" d="M217.771,-269.069C207.577,-244.073 197.146,-218.495 189.675,-200.175"/>
<polygon fill="black" stroke="black" points="217.899,-269.383 217.509,-280.342 219.787,-274.013 221.676,-278.643 221.676,-278.643 221.676,-278.643 219.787,-274.013 225.842,-276.944 217.899,-269.383 217.899,-269.383"/>
<polygon fill="black" stroke="black" points="189.625,-200.053 190.016,-189.094 187.737,-195.423 185.849,-190.793 185.849,-190.793 185.849,-190.793 187.737,-195.423 181.682,-192.493 189.625,-200.053 189.625,-200.053"/>
</g>
<!-- RecipeCookbook -->
<g id="node11" class="node"><title>RecipeCookbook</title>
<polyline fill="none" stroke="black" points="1157.49,-485.8 1266.51,-485.8 "/>
<path fill="none" stroke="black" d="M1266.51,-485.8C1272.51,-485.8 1278.51,-491.8 1278.51,-497.8"/>
<polyline fill="none" stroke="black" points="1278.51,-497.8 1278.51,-540.2 "/>
<path fill="none" stroke="black" d="M1278.51,-540.2C1278.51,-546.2 1272.51,-552.2 1266.51,-552.2"/>
<polyline fill="none" stroke="black" points="1266.51,-552.2 1157.49,-552.2 "/>
<path fill="none" stroke="black" d="M1157.49,-552.2C1151.49,-552.2 1145.49,-546.2 1145.49,-540.2"/>
<polyline fill="none" stroke="black" points="1145.49,-540.2 1145.49,-497.8 "/>
<path fill="none" stroke="black" d="M1145.49,-497.8C1145.49,-491.8 1151.49,-485.8 1157.49,-485.8"/>
<text text-anchor="middle" x="1212" y="-534.2" font-family="Times,serif" font-size="14.00">RecipeCookbook</text>
<polyline fill="none" stroke="black" points="1145.49,-527.4 1278.51,-527.4 "/>
<text text-anchor="start" x="1153.49" y="-509.4" font-family="Times,serif" font-size="14.00">created_at :datetime</text>
<text text-anchor="start" x="1153.49" y="-492.6" font-family="Times,serif" font-size="14.00">updated_at :datetime</text>
</g>
<!-- RecipePicture -->
<g id="node12" class="node"><title>RecipePicture</title>
<polyline fill="none" stroke="black" points="1308.49,-469 1417.51,-469 "/>
<path fill="none" stroke="black" d="M1417.51,-469C1423.51,-469 1429.51,-475 1429.51,-481"/>
<polyline fill="none" stroke="black" points="1429.51,-481 1429.51,-557 "/>
<path fill="none" stroke="black" d="M1429.51,-557C1429.51,-563 1423.51,-569 1417.51,-569"/>
<polyline fill="none" stroke="black" points="1417.51,-569 1308.49,-569 "/>
<path fill="none" stroke="black" d="M1308.49,-569C1302.49,-569 1296.49,-563 1296.49,-557"/>
<polyline fill="none" stroke="black" points="1296.49,-557 1296.49,-481 "/>
<path fill="none" stroke="black" d="M1296.49,-481C1296.49,-475 1302.49,-469 1308.49,-469"/>
<text text-anchor="middle" x="1363" y="-551" font-family="Times,serif" font-size="14.00">RecipePicture</text>
<polyline fill="none" stroke="black" points="1296.49,-544.2 1429.51,-544.2 "/>
<text text-anchor="start" x="1304.49" y="-526.2" font-family="Times,serif" font-size="14.00">title :string</text>
<text text-anchor="start" x="1304.49" y="-509.4" font-family="Times,serif" font-size="14.00">created_at :datetime</text>
<text text-anchor="start" x="1304.49" y="-492.6" font-family="Times,serif" font-size="14.00">updated_at :datetime</text>
<text text-anchor="start" x="1304.49" y="-475.8" font-family="Times,serif" font-size="14.00">image :string</text>
</g>
<!-- Tag -->
<g id="node13" class="node"><title>Tag</title>
<polyline fill="none" stroke="black" points="1459.49,-312.4 1568.51,-312.4 "/>
<path fill="none" stroke="black" d="M1568.51,-312.4C1574.51,-312.4 1580.51,-318.4 1580.51,-324.4"/>
<polyline fill="none" stroke="black" points="1580.51,-324.4 1580.51,-383.6 "/>
<path fill="none" stroke="black" d="M1580.51,-383.6C1580.51,-389.6 1574.51,-395.6 1568.51,-395.6"/>
<polyline fill="none" stroke="black" points="1568.51,-395.6 1459.49,-395.6 "/>
<path fill="none" stroke="black" d="M1459.49,-395.6C1453.49,-395.6 1447.49,-389.6 1447.49,-383.6"/>
<polyline fill="none" stroke="black" points="1447.49,-383.6 1447.49,-324.4 "/>
<path fill="none" stroke="black" d="M1447.49,-324.4C1447.49,-318.4 1453.49,-312.4 1459.49,-312.4"/>
<text text-anchor="middle" x="1514" y="-377.6" font-family="Times,serif" font-size="14.00">Tag</text>
<polyline fill="none" stroke="black" points="1447.49,-370.8 1580.51,-370.8 "/>
<text text-anchor="start" x="1455.49" y="-352.8" font-family="Times,serif" font-size="14.00">name :string</text>
<text text-anchor="start" x="1455.49" y="-336" font-family="Times,serif" font-size="14.00">created_at :datetime</text>
<text text-anchor="start" x="1455.49" y="-319.2" font-family="Times,serif" font-size="14.00">updated_at :datetime</text>
</g>
<!-- Tagging -->
<g id="node14" class="node"><title>Tagging</title>
<polyline fill="none" stroke="black" points="1459.49,-485.8 1568.51,-485.8 "/>
<path fill="none" stroke="black" d="M1568.51,-485.8C1574.51,-485.8 1580.51,-491.8 1580.51,-497.8"/>
<polyline fill="none" stroke="black" points="1580.51,-497.8 1580.51,-540.2 "/>
<path fill="none" stroke="black" d="M1580.51,-540.2C1580.51,-546.2 1574.51,-552.2 1568.51,-552.2"/>
<polyline fill="none" stroke="black" points="1568.51,-552.2 1459.49,-552.2 "/>
<path fill="none" stroke="black" d="M1459.49,-552.2C1453.49,-552.2 1447.49,-546.2 1447.49,-540.2"/>
<polyline fill="none" stroke="black" points="1447.49,-540.2 1447.49,-497.8 "/>
<path fill="none" stroke="black" d="M1447.49,-497.8C1447.49,-491.8 1453.49,-485.8 1459.49,-485.8"/>
<text text-anchor="middle" x="1514" y="-534.2" font-family="Times,serif" font-size="14.00">Tagging</text>
<polyline fill="none" stroke="black" points="1447.49,-527.4 1580.51,-527.4 "/>
<text text-anchor="start" x="1455.49" y="-509.4" font-family="Times,serif" font-size="14.00">created_at :datetime</text>
<text text-anchor="start" x="1455.49" y="-492.6" font-family="Times,serif" font-size="14.00">updated_at :datetime</text>
</g>
<!-- Tagging&#45;&gt;Tag -->
<g id="edge24" class="edge"><title>Tagging&#45;&gt;Tag</title>
<path fill="none" stroke="black" d="M1514,-477.631C1514,-456.019 1514,-429.177 1514,-406.121"/>
<ellipse fill="none" stroke="black" cx="1514" cy="-481.796" rx="4" ry="4"/>
<polygon fill="black" stroke="black" points="1514,-405.826 1518.5,-395.826 1514,-400.826 1514,-395.826 1514,-395.826 1514,-395.826 1514,-400.826 1509.5,-395.826 1514,-405.826 1514,-405.826"/>
</g>
<!-- Unit&#45;&gt;Ingredient -->
<g id="edge26" class="edge"><title>Unit&#45;&gt;Ingredient</title>
<path fill="none" stroke="black" d="M72.5742,-92.0224C72.7305,-98.7822 72.7826,-105.783 72.7304,-112.703"/>
<ellipse fill="none" stroke="black" cx="72.4412" cy="-87.6113" rx="4" ry="4"/>
<polygon fill="black" stroke="black" points="72.7281,-112.864 68.0774,-122.795 72.6525,-117.863 72.5769,-122.863 72.5769,-122.863 72.5769,-122.863 72.6525,-117.863 77.0763,-122.931 72.7281,-112.864 72.7281,-112.864"/>
</g>
<!-- User -->
<g id="node16" class="node"><title>User</title>
<polyline fill="none" stroke="black" points="421.495,-287.2 530.505,-287.2 "/>
<path fill="none" stroke="black" d="M530.505,-287.2C536.505,-287.2 542.505,-293.2 542.505,-299.2"/>
<polyline fill="none" stroke="black" points="542.505,-299.2 542.505,-408.8 "/>
<path fill="none" stroke="black" d="M542.505,-408.8C542.505,-414.8 536.505,-420.8 530.505,-420.8"/>
<polyline fill="none" stroke="black" points="530.505,-420.8 421.495,-420.8 "/>
<path fill="none" stroke="black" d="M421.495,-420.8C415.495,-420.8 409.495,-414.8 409.495,-408.8"/>
<polyline fill="none" stroke="black" points="409.495,-408.8 409.495,-299.2 "/>
<path fill="none" stroke="black" d="M409.495,-299.2C409.495,-293.2 415.495,-287.2 421.495,-287.2"/>
<text text-anchor="middle" x="476" y="-402.8" font-family="Times,serif" font-size="14.00">User</text>
<polyline fill="none" stroke="black" points="409.495,-396 542.505,-396 "/>
<text text-anchor="start" x="417.495" y="-378" font-family="Times,serif" font-size="14.00">provider :string</text>
<text text-anchor="start" x="417.495" y="-361.2" font-family="Times,serif" font-size="14.00">uid :string</text>
<text text-anchor="start" x="417.495" y="-344.4" font-family="Times,serif" font-size="14.00">name :string</text>
<text text-anchor="start" x="417.495" y="-327.6" font-family="Times,serif" font-size="14.00">created_at :datetime</text>
<text text-anchor="start" x="417.495" y="-310.8" font-family="Times,serif" font-size="14.00">updated_at :datetime</text>
<text text-anchor="start" x="417.495" y="-294" font-family="Times,serif" font-size="14.00">picture_url :string</text>
</g>
<!-- User&#45;&gt;Comment -->
<g id="edge36" class="edge"><title>User&#45;&gt;Comment</title>
<path fill="none" stroke="black" d="M460.587,-278.923C459.341,-272.529 458.129,-266.154 457,-260 454.91,-248.607 452.817,-236.336 450.911,-224.731"/>
<ellipse fill="none" stroke="black" cx="461.407" cy="-283.092" rx="4.00001" ry="4.00001"/>
<polygon fill="black" stroke="black" points="450.892,-224.613 453.731,-214.021 450.091,-219.678 449.289,-214.743 449.289,-214.743 449.289,-214.743 450.091,-219.678 444.847,-215.464 450.892,-224.613 450.892,-224.613"/>
</g>
<!-- User&#45;&gt;Friendship -->
<g id="edge28" class="edge"><title>User&#45;&gt;Friendship</title>
<path fill="none" stroke="black" d="M548.937,-305.61C563.796,-292.586 577.707,-277.232 587,-260 594.062,-246.905 597.158,-231.081 598.299,-216.595"/>
<ellipse fill="none" stroke="black" cx="545.573" cy="-308.462" rx="4.00002" ry="4.00002"/>
<polygon fill="black" stroke="black" points="598.312,-216.329 603.308,-206.567 598.563,-211.335 598.813,-206.342 598.813,-206.342 598.813,-206.342 598.563,-211.335 594.319,-206.116 598.312,-216.329 598.312,-216.329"/>
</g>
<!-- User&#45;&gt;Friendship -->
<g id="edge32" class="edge"><title>User&#45;&gt;Friendship</title>
<path fill="none" stroke="black" d="M461.957,-278.858C462.782,-265.753 466.035,-252.849 473.358,-242 485.327,-224.269 498.963,-233.76 518,-224 525.371,-220.221 532.942,-215.962 540.341,-211.564"/>
<ellipse fill="none" stroke="black" cx="461.847" cy="-283.029" rx="4" ry="4"/>
<polygon fill="black" stroke="black" points="540.375,-211.543 551.259,-210.206 544.65,-208.951 548.926,-206.358 548.926,-206.358 548.926,-206.358 544.65,-208.951 546.592,-202.51 540.375,-211.543 540.375,-211.543"/>
<text text-anchor="middle" x="528.821" y="-245.4" font-family="Times,serif" font-size="14.00">inverse_friendships</text>
</g>
<!-- User&#45;&gt;User -->
<g id="edge30" class="edge"><title>User&#45;&gt;User</title>
<path fill="none" stroke="black" d="M552.629,-360.092C557.236,-358.641 560,-356.61 560,-354 560,-351.39 557.236,-349.359 552.629,-347.908"/>
<polygon fill="black" stroke="black" points="552.357,-360.145 541.676,-357.661 547.451,-361.111 542.545,-362.076 542.545,-362.076 542.545,-362.076 547.451,-361.111 543.414,-366.491 552.357,-360.145 552.357,-360.145"/>
<polygon fill="black" stroke="black" points="552.357,-347.855 543.414,-341.509 547.451,-346.889 542.545,-345.924 542.545,-345.924 542.545,-345.924 547.451,-346.889 541.676,-350.339 552.357,-347.855 552.357,-347.855"/>
<text text-anchor="middle" x="579.438" y="-348.4" font-family="Times,serif" font-size="14.00">friends</text>
</g>
<!-- User&#45;&gt;User -->
<g id="edge34" class="edge"><title>User&#45;&gt;User</title>
<path fill="none" stroke="black" d="M552.906,-371.604C578.16,-371.214 598.876,-365.346 598.876,-354 598.876,-342.654 578.16,-336.786 552.906,-336.396"/>
<polygon fill="black" stroke="black" points="552.645,-371.601 542.705,-366.97 547.646,-371.535 542.646,-371.47 542.646,-371.47 542.646,-371.47 547.646,-371.535 542.588,-375.97 552.645,-371.601 552.645,-371.601"/>
<polygon fill="black" stroke="black" points="552.645,-336.399 542.588,-332.03 547.646,-336.465 542.646,-336.53 542.646,-336.53 542.646,-336.53 547.646,-336.465 542.705,-341.03 552.645,-336.399 552.645,-336.399"/>
<text text-anchor="middle" x="642.028" y="-348.4" font-family="Times,serif" font-size="14.00">inverse_friends</text>
</g>
<!-- OmniAuth::Identity::Models::ActiveRecord -->
<g id="node20" class="node"><title>OmniAuth::Identity::Models::ActiveRecord</title>
<ellipse fill="none" stroke="black" cx="795" cy="-519" rx="181.12" ry="18"/>
<text text-anchor="middle" x="795" y="-513.4" font-family="Times,serif" font-size="14.00">OmniAuth::Identity::Models::ActiveRecord</text>
</g>
<!-- OmniAuth::Identity::Models::ActiveRecord&#45;&gt;Identity -->
<g id="edge8" class="edge"><title>OmniAuth::Identity::Models::ActiveRecord&#45;&gt;Identity</title>
<path fill="none" stroke="black" d="M795,-500.864C795,-480.021 795,-443.758 795,-412.605"/>
</g>
</g>
</svg>
