<?xml version="1.0" encoding="UTF-8" standalone="no"?>
<!DOCTYPE svg PUBLIC "-//W3C//DTD SVG 1.1//EN"
 "http://www.w3.org/Graphics/SVG/1.1/DTD/svg11.dtd">
<!-- Generated by graphviz version 2.28.0 (20120127.1228)
 -->
<!-- Title: models_diagram Pages: 1 -->
<svg width="1322pt" height="332pt"
 viewBox="0.00 0.00 1322.00 332.00" xmlns="http://www.w3.org/2000/svg" xmlns:xlink="http://www.w3.org/1999/xlink">
<g id="graph1" class="graph" transform="scale(1 1) rotate(0) translate(4 328)">
<title>models_diagram</title>
<polygon fill="white" stroke="white" points="-4,5 -4,-328 1319,-328 1319,5 -4,5"/>
<!-- _diagram_info -->
<g id="node1" class="node"><title>_diagram_info</title>
<text text-anchor="start" x="7.31226" y="-307" font-family="Times,serif" font-size="13.00">Models diagram</text>
<text text-anchor="start" x="7.31226" y="-291.4" font-family="Times,serif" font-size="13.00">Date: Jan 27 2012 &#45; 13:34</text>
<text text-anchor="start" x="7.31226" y="-275.8" font-family="Times,serif" font-size="13.00">Migration version: 20120124220357</text>
<text text-anchor="start" x="7.31226" y="-260.2" font-family="Times,serif" font-size="13.00">Generated by RailRoady 1.0.5</text>
<text text-anchor="start" x="7.31226" y="-244.6" font-family="Times,serif" font-size="13.00">http://railroady.prestonlee.com</text>
</g>
<!-- Category -->
<g id="node2" class="node"><title>Category</title>
<ellipse fill="none" stroke="black" cx="85" cy="-182" rx="46.1519" ry="18"/>
<text text-anchor="middle" x="85" y="-176.4" font-family="Times,serif" font-size="14.00">Category</text>
</g>
<!-- Ingredient -->
<g id="node7" class="node"><title>Ingredient</title>
<ellipse fill="none" stroke="black" cx="85" cy="-92" rx="50.5802" ry="18"/>
<text text-anchor="middle" x="85" y="-86.4" font-family="Times,serif" font-size="14.00">Ingredient</text>
</g>
<!-- Category&#45;&gt;Ingredient -->
<g id="edge2" class="edge"><title>Category&#45;&gt;Ingredient</title>
<path fill="none" stroke="black" d="M78.8326,-155.832C78.099,-144.677 78.0582,-131.533 78.7103,-120.157"/>
<ellipse fill="none" stroke="black" cx="79.1972" cy="-160.048" rx="4" ry="4"/>
<polygon fill="black" stroke="black" points="78.7327,-119.882 84.0328,-110.282 79.1402,-114.899 79.5478,-109.915 79.5478,-109.915 79.5478,-109.915 79.1402,-114.899 75.0627,-109.548 78.7327,-119.882 78.7327,-119.882"/>
</g>
<!-- Comment -->
<g id="node3" class="node"><title>Comment</title>
<ellipse fill="none" stroke="black" cx="351" cy="-92" rx="49.1903" ry="18"/>
<text text-anchor="middle" x="351" y="-86.4" font-family="Times,serif" font-size="14.00">Comment</text>
</g>
<!-- Cookbook -->
<g id="node4" class="node"><title>Cookbook</title>
<ellipse fill="none" stroke="black" cx="276" cy="-281" rx="50.9169" ry="18"/>
<text text-anchor="middle" x="276" y="-275.4" font-family="Times,serif" font-size="14.00">Cookbook</text>
</g>
<!-- Post -->
<g id="node9" class="node"><title>Post</title>
<ellipse fill="none" stroke="black" cx="256" cy="-92" rx="27.5142" ry="18"/>
<text text-anchor="middle" x="256" y="-86.4" font-family="Times,serif" font-size="14.00">Post</text>
</g>
<!-- Cookbook&#45;&gt;Post -->
<g id="edge4" class="edge"><title>Cookbook&#45;&gt;Post</title>
<path fill="none" stroke="black" d="M279.147,-254.892C281.517,-231.293 283.639,-195.054 279,-164 276.528,-147.453 273.158,-143.915 268,-128 266.878,-124.538 265.665,-120.894 264.456,-117.318"/>
<ellipse fill="none" stroke="black" cx="278.704" cy="-259.005" rx="4" ry="4"/>
<ellipse fill="black" stroke="black" cx="263.146" cy="-113.482" rx="4.00001" ry="4.00001"/>
</g>
<!-- Recipe -->
<g id="node10" class="node"><title>Recipe</title>
<ellipse fill="none" stroke="black" cx="233" cy="-182" rx="37.2739" ry="18"/>
<text text-anchor="middle" x="233" y="-176.4" font-family="Times,serif" font-size="14.00">Recipe</text>
</g>
<!-- Cookbook&#45;&gt;Recipe -->
<g id="edge6" class="edge"><title>Cookbook&#45;&gt;Recipe</title>
<path fill="none" stroke="black" d="M264.305,-253.618C258.173,-239.786 250.688,-222.901 244.574,-209.11"/>
<polygon fill="black" stroke="black" points="264.457,-253.962 264.396,-264.928 266.484,-258.533 268.51,-263.104 268.51,-263.104 268.51,-263.104 266.484,-258.533 272.624,-261.28 264.457,-253.962 264.457,-253.962"/>
<polygon fill="black" stroke="black" points="244.457,-208.844 244.518,-197.879 242.431,-204.273 240.404,-199.702 240.404,-199.702 240.404,-199.702 242.431,-204.273 236.29,-201.526 244.457,-208.844 244.457,-208.844"/>
</g>
<!-- Friendship -->
<g id="node5" class="node"><title>Friendship</title>
<ellipse fill="none" stroke="black" cx="489" cy="-92" rx="52.0219" ry="18"/>
<text text-anchor="middle" x="489" y="-86.4" font-family="Times,serif" font-size="14.00">Friendship</text>
</g>
<!-- Identity -->
<g id="node6" class="node"><title>Identity</title>
<ellipse fill="none" stroke="black" cx="632" cy="-182" rx="41.1096" ry="18"/>
<text text-anchor="middle" x="632" y="-176.4" font-family="Times,serif" font-size="14.00">Identity</text>
</g>
<!-- Ingredient&#45;&gt;Category -->
<g id="edge10" class="edge"><title>Ingredient&#45;&gt;Category</title>
<path fill="none" stroke="black" d="M91.1608,-118.067C91.9442,-129.899 91.9464,-143.988 91.1674,-155.832"/>
<ellipse fill="none" stroke="black" cx="90.7986" cy="-113.9" rx="4" ry="4"/>
<ellipse fill="black" stroke="black" cx="90.8028" cy="-160.048" rx="4" ry="4"/>
</g>
<!-- Unit -->
<g id="node15" class="node"><title>Unit</title>
<ellipse fill="none" stroke="black" cx="85" cy="-18" rx="28.3082" ry="18"/>
<text text-anchor="middle" x="85" y="-12.4" font-family="Times,serif" font-size="14.00">Unit</text>
</g>
<!-- Ingredient&#45;&gt;Unit -->
<g id="edge12" class="edge"><title>Ingredient&#45;&gt;Unit</title>
<path fill="none" stroke="black" d="M78.5206,-65.6669C78.1595,-58.7418 78.1598,-51.2377 78.5216,-44.3136"/>
<ellipse fill="none" stroke="black" cx="78.8516" cy="-69.9489" rx="4" ry="4"/>
<ellipse fill="black" stroke="black" cx="78.8628" cy="-39.9285" rx="4" ry="4"/>
</g>
<!-- Like -->
<g id="node8" class="node"><title>Like</title>
<ellipse fill="none" stroke="black" cx="860" cy="-281" rx="28.5985" ry="18"/>
<text text-anchor="middle" x="860" y="-275.4" font-family="Times,serif" font-size="14.00">Like</text>
</g>
<!-- Post&#45;&gt;Recipe -->
<g id="edge14" class="edge"><title>Post&#45;&gt;Recipe</title>
<path fill="none" stroke="black" d="M255.627,-117.974C253.4,-129.414 249.885,-142.979 246.149,-154.588"/>
<ellipse fill="none" stroke="black" cx="256.318" cy="-114.018" rx="4.00001" ry="4.00001"/>
<polygon fill="black" stroke="black" points="246.007,-154.998 238.485,-162.976 244.372,-159.723 242.738,-164.448 242.738,-164.448 242.738,-164.448 244.372,-159.723 246.99,-165.919 246.007,-154.998 246.007,-154.998"/>
</g>
<!-- Recipe&#45;&gt;Comment -->
<g id="edge22" class="edge"><title>Recipe&#45;&gt;Comment</title>
<path fill="none" stroke="black" d="M259.122,-161.519C277.792,-147.596 302.914,-128.86 322.171,-114.5"/>
<ellipse fill="none" stroke="black" cx="255.692" cy="-164.077" rx="4.00002" ry="4.00002"/>
<polygon fill="black" stroke="black" points="322.278,-114.42 332.984,-112.049 326.286,-111.431 330.294,-108.442 330.294,-108.442 330.294,-108.442 326.286,-111.431 327.604,-104.834 322.278,-114.42 322.278,-114.42"/>
</g>
<!-- Recipe&#45;&gt;Ingredient -->
<g id="edge18" class="edge"><title>Recipe&#45;&gt;Ingredient</title>
<path fill="none" stroke="black" d="M203.17,-163.263C178.734,-148.734 144.165,-128.179 118.727,-113.054"/>
<ellipse fill="none" stroke="black" cx="206.761" cy="-165.399" rx="4.00002" ry="4.00002"/>
<polygon fill="black" stroke="black" points="118.399,-112.859 112.104,-103.88 114.101,-110.304 109.804,-107.748 109.804,-107.748 109.804,-107.748 114.101,-110.304 107.504,-111.616 118.399,-112.859 118.399,-112.859"/>
</g>
<!-- Recipe&#45;&gt;Post -->
<g id="edge16" class="edge"><title>Recipe&#45;&gt;Post</title>
<path fill="none" stroke="black" d="M233.434,-155.713C235.822,-143.538 239.647,-129.014 243.636,-117.011"/>
<ellipse fill="none" stroke="black" cx="232.735" cy="-159.675" rx="4.00001" ry="4.00001"/>
<ellipse fill="black" stroke="black" cx="245.076" cy="-112.934" rx="4.00001" ry="4.00001"/>
</g>
<!-- Item -->
<g id="node28" class="node"><title>Item</title>
<ellipse fill="none" stroke="black" cx="182" cy="-92" rx="28.5985" ry="18"/>
<text text-anchor="middle" x="182" y="-86.4" font-family="Times,serif" font-size="14.00">Item</text>
</g>
<!-- Recipe&#45;&gt;Item -->
<g id="edge20" class="edge"><title>Recipe&#45;&gt;Item</title>
<path fill="none" stroke="black" d="M218.317,-155.665C211.472,-143.854 203.35,-129.839 196.524,-118.061"/>
<polygon fill="black" stroke="black" points="218.393,-155.796 219.514,-166.704 220.9,-160.122 223.407,-164.448 223.407,-164.448 223.407,-164.448 220.9,-160.122 227.301,-162.191 218.393,-155.796 218.393,-155.796"/>
<polygon fill="black" stroke="black" points="196.392,-117.833 195.271,-106.924 193.885,-113.507 191.377,-109.181 191.377,-109.181 191.377,-109.181 193.885,-113.507 187.484,-111.437 196.392,-117.833 196.392,-117.833"/>
</g>
<!-- RecipeCookbook -->
<g id="node11" class="node"><title>RecipeCookbook</title>
<ellipse fill="none" stroke="black" cx="985" cy="-281" rx="78.1323" ry="18"/>
<text text-anchor="middle" x="985" y="-275.4" font-family="Times,serif" font-size="14.00">RecipeCookbook</text>
</g>
<!-- RecipePicture -->
<g id="node12" class="node"><title>RecipePicture</title>
<ellipse fill="none" stroke="black" cx="1146" cy="-281" rx="65.3021" ry="18"/>
<text text-anchor="middle" x="1146" y="-275.4" font-family="Times,serif" font-size="14.00">RecipePicture</text>
</g>
<!-- Tag -->
<g id="node13" class="node"><title>Tag</title>
<ellipse fill="none" stroke="black" cx="1272" cy="-182" rx="27" ry="18"/>
<text text-anchor="middle" x="1272" y="-176.4" font-family="Times,serif" font-size="14.00">Tag</text>
</g>
<!-- Tagging -->
<g id="node14" class="node"><title>Tagging</title>
<ellipse fill="none" stroke="black" cx="1272" cy="-281" rx="42.316" ry="18"/>
<text text-anchor="middle" x="1272" y="-275.4" font-family="Times,serif" font-size="14.00">Tagging</text>
</g>
<!-- Tagging&#45;&gt;Tag -->
<g id="edge24" class="edge"><title>Tagging&#45;&gt;Tag</title>
<path fill="none" stroke="black" d="M1272,-254.227C1272,-240.741 1272,-224.227 1272,-210.496"/>
<ellipse fill="none" stroke="black" cx="1272" cy="-258.658" rx="4" ry="4"/>
<polygon fill="black" stroke="black" points="1272,-210.192 1276.5,-200.191 1272,-205.192 1272,-200.192 1272,-200.192 1272,-200.192 1272,-205.192 1267.5,-200.192 1272,-210.192 1272,-210.192"/>
</g>
<!-- Unit&#45;&gt;Ingredient -->
<g id="edge26" class="edge"><title>Unit&#45;&gt;Ingredient</title>
<path fill="none" stroke="black" d="M91.4733,-44.2157C91.8087,-50.5706 91.8392,-57.4194 91.5647,-63.864"/>
<ellipse fill="none" stroke="black" cx="91.1384" cy="-39.9284" rx="4" ry="4"/>
<polygon fill="black" stroke="black" points="91.5577,-63.9628 86.3515,-73.614 91.1988,-68.9499 90.8399,-73.937 90.8399,-73.937 90.8399,-73.937 91.1988,-68.9499 95.3283,-74.26 91.5577,-63.9628 91.5577,-63.9628"/>
</g>
<!-- User -->
<g id="node16" class="node"><title>User</title>
<ellipse fill="none" stroke="black" cx="384" cy="-182" rx="28.9087" ry="18"/>
<text text-anchor="middle" x="384" y="-176.4" font-family="Times,serif" font-size="14.00">User</text>
</g>
<!-- User&#45;&gt;Comment -->
<g id="edge36" class="edge"><title>User&#45;&gt;Comment</title>
<path fill="none" stroke="black" d="M370.424,-157.826C368.445,-153.951 366.554,-149.916 365,-146 361.706,-137.699 358.945,-128.361 356.77,-119.863"/>
<ellipse fill="none" stroke="black" cx="372.384" cy="-161.483" rx="4.00002" ry="4.00002"/>
<polygon fill="black" stroke="black" points="356.746,-119.763 358.786,-108.989 355.578,-114.901 354.41,-110.04 354.41,-110.04 354.41,-110.04 355.578,-114.901 350.035,-111.091 356.746,-119.763 356.746,-119.763"/>
</g>
<!-- User&#45;&gt;Friendship -->
<g id="edge28" class="edge"><title>User&#45;&gt;Friendship</title>
<path fill="none" stroke="black" d="M421.573,-179.988C446.776,-177.107 478.308,-168.766 495,-146 500.49,-138.512 500.759,-128.76 499.055,-119.665"/>
<ellipse fill="none" stroke="black" cx="417.282" cy="-180.393" rx="4" ry="4"/>
<polygon fill="black" stroke="black" points="499.012,-119.502 500.817,-108.686 497.739,-114.667 496.465,-109.832 496.465,-109.832 496.465,-109.832 497.739,-114.667 492.114,-110.978 499.012,-119.502 499.012,-119.502"/>
</g>
<!-- User&#45;&gt;Friendship -->
<g id="edge32" class="edge"><title>User&#45;&gt;Friendship</title>
<path fill="none" stroke="black" d="M376.459,-156.071C375.078,-146.491 375.579,-135.956 381.358,-128 388.205,-118.575 411.798,-110.373 435.157,-104.282"/>
<ellipse fill="none" stroke="black" cx="377.289" cy="-160.233" rx="4.00001" ry="4.00001"/>
<polygon fill="black" stroke="black" points="435.401,-104.222 446.193,-106.17 440.253,-103.013 445.105,-101.804 445.105,-101.804 445.105,-101.804 440.253,-103.013 444.017,-97.4374 435.401,-104.222 435.401,-104.222"/>
<text text-anchor="middle" x="436.821" y="-131.4" font-family="Times,serif" font-size="14.00">inverse_friendships</text>
</g>
<!-- User&#45;&gt;User -->
<g id="edge30" class="edge"><title>User&#45;&gt;User</title>
<path fill="none" stroke="black" d="M423.034,-184.925C427.844,-184.403 431,-183.428 431,-182 431,-180.572 427.844,-179.597 423.034,-179.075"/>
<polygon fill="black" stroke="black" points="422.905,-184.93 412.715,-180.879 417.91,-185.152 412.915,-185.374 412.915,-185.374 412.915,-185.374 417.91,-185.152 413.114,-189.87 422.905,-184.93 422.905,-184.93"/>
<polygon fill="black" stroke="black" points="422.905,-179.07 413.114,-174.13 417.91,-178.848 412.915,-178.626 412.915,-178.626 412.915,-178.626 417.91,-178.848 412.715,-183.121 422.905,-179.07 422.905,-179.07"/>
<text text-anchor="middle" x="450.438" y="-176.4" font-family="Times,serif" font-size="14.00">friends</text>
</g>
<!-- User&#45;&gt;User -->
<g id="edge34" class="edge"><title>User&#45;&gt;User</title>
<path fill="none" stroke="black" d="M416.021,-196.224C441.433,-200.918 469.876,-196.176 469.876,-182 469.876,-167.824 441.433,-163.082 416.021,-167.776"/>
<polygon fill="black" stroke="black" points="415.859,-196.185 407.183,-189.479 410.997,-195.02 406.134,-193.855 406.134,-193.855 406.134,-193.855 410.997,-195.02 405.086,-198.232 415.859,-196.185 415.859,-196.185"/>
<polygon fill="black" stroke="black" points="415.859,-167.815 405.086,-165.768 410.997,-168.98 406.134,-170.145 406.134,-170.145 406.134,-170.145 410.997,-168.98 407.183,-174.521 415.859,-167.815 415.859,-167.815"/>
<text text-anchor="middle" x="513.028" y="-176.4" font-family="Times,serif" font-size="14.00">inverse_friends</text>
</g>
<!-- OmniAuth::Identity::Models::ActiveRecord -->
<g id="node20" class="node"><title>OmniAuth::Identity::Models::ActiveRecord</title>
<ellipse fill="none" stroke="black" cx="632" cy="-281" rx="181.12" ry="18"/>
<text text-anchor="middle" x="632" y="-275.4" font-family="Times,serif" font-size="14.00">OmniAuth::Identity::Models::ActiveRecord</text>
</g>
<!-- OmniAuth::Identity::Models::ActiveRecord&#45;&gt;Identity -->
<g id="edge8" class="edge"><title>OmniAuth::Identity::Models::ActiveRecord&#45;&gt;Identity</title>
<path fill="none" stroke="black" d="M632,-262.658C632,-245.002 632,-217.793 632,-200.192"/>
</g>
</g>
</svg>
